<svg width="83" height="55" viewBox="0 0 83 55" fill="none" xmlns="http://www.w3.org/2000/svg">
<path d="M81.9092 31.9652C81.5948 29.3021 79.551 27.2656 76.721 27.2656C74.0484 27.2656 71.6901 29.4588 71.5329 32.1218C70.7468 35.4115 69.0174 38.2313 66.5019 40.7377C62.8859 44.184 58.6411 45.9072 53.7674 45.7506C49.0508 45.5939 45.2776 44.0274 42.1333 41.051C41.8189 40.7377 41.5044 40.4244 41.0328 40.2677C41.0328 40.2677 40.8756 40.2677 40.8756 40.1111C40.7183 40.1111 40.7183 39.9544 40.5611 39.9544C40.4039 39.9544 40.2467 39.7978 40.0895 39.7978H39.9322C39.775 39.7978 39.6178 39.7978 39.4606 39.6411H39.3034C39.1462 39.6411 38.8317 39.6411 38.6745 39.6411C36.0018 39.6411 33.8008 41.8343 33.8008 44.4973C33.8008 44.8106 33.8008 45.2806 33.958 45.5939L34.5869 47.0038C34.7441 47.3171 35.0585 47.6304 35.2157 47.9437C35.373 48.1003 35.5302 48.257 35.6874 48.4136C40.5611 52.6432 46.5354 54.8364 53.4529 54.993C61.3138 55.1497 68.0741 52.6432 73.5767 47.6304C77.6643 43.8707 80.337 39.4845 81.4376 34.315C81.5948 33.845 81.752 33.2184 81.752 32.7484C82.0664 32.4351 82.0664 32.1218 81.9092 31.9652Z" fill="#F15B22"/>
<path d="M40.2463 16.3009C43.8623 11.758 48.7361 9.4082 54.7103 9.56485C59.7413 9.7215 63.8289 11.6013 67.2877 15.2043C69.1743 17.2408 70.5892 19.5906 71.3753 22.097C72.1614 23.9768 74.048 25.23 76.0918 25.23C78.1357 25.23 80.0223 23.9768 80.8083 22.097C81.1228 21.4704 81.28 20.6871 81.28 20.0605C81.28 19.7472 81.28 19.5906 81.28 19.2773C81.1228 18.494 80.9656 17.8674 80.4939 17.2408C79.2362 14.1078 77.3496 11.288 74.6769 8.78159C69.3315 3.29877 62.7284 0.165735 54.8675 0.00908268C48.7361 -0.147569 43.3907 1.73225 38.6742 4.86529C37.2592 5.8052 35.8443 6.90177 34.5865 8.15498C33.9577 8.78159 33.486 9.4082 32.8571 10.0348C32.6999 10.1915 32.3855 10.8181 32.3855 10.8181L22.3236 37.9189L9.27457 3.29877C8.33126 0.792342 5.65857 -0.460873 3.1431 0.479039C0.627626 1.41895 -0.630111 4.23868 0.313191 6.58846L17.4499 51.7042C18.3932 54.2107 21.2231 55.4639 23.5813 54.524C24.5246 54.2107 25.3107 53.4274 25.9396 52.6441V52.8008L26.0968 52.4875C26.254 52.0175 26.5684 51.7042 26.5684 51.2343L40.2463 16.3009C40.0891 16.3009 40.2463 16.3009 40.2463 16.3009Z" fill="white"/>
</svg>
