<?xml version="1.0" encoding="utf-8"?>
<!-- Generator: Adobe Illustrator 22.1.0, SVG Export Plug-In . SVG Version: 6.00 Build 0)  -->
<svg version="1.1" id="Layer_1" xmlns="http://www.w3.org/2000/svg" xmlns:xlink="http://www.w3.org/1999/xlink" x="0px" y="0px"
	 viewBox="0 0 83 55" style="enable-background:new 0 0 83 55;" xml:space="preserve">
<style type="text/css">
	.st0{fill:#F15B22;}
</style>
<path class="st0" d="M81.9,32c-0.3-2.7-2.4-4.7-5.2-4.7c-2.7,0-5,2.2-5.2,4.9c-0.8,3.3-2.5,6.1-5,8.6c-3.6,3.4-7.9,5.2-12.7,5
	c-4.7-0.2-8.5-1.7-11.6-4.7c-0.3-0.3-0.6-0.6-1.1-0.8c0,0-0.2,0-0.2-0.2c-0.2,0-0.2-0.2-0.3-0.2s-0.3-0.2-0.5-0.2h-0.2
	c-0.2,0-0.3,0-0.5-0.2h-0.2c-0.2,0-0.5,0-0.6,0c-2.7,0-4.9,2.2-4.9,4.9c0,0.3,0,0.8,0.2,1.1l0.6,1.4c0.2,0.3,0.5,0.6,0.6,0.9
	c0.2,0.2,0.3,0.3,0.5,0.5c4.9,4.2,10.8,6.4,17.8,6.6c7.9,0.2,14.6-2.3,20.1-7.4c4.1-3.8,6.8-8.1,7.9-13.3c0.2-0.5,0.3-1.1,0.3-1.6
	C82.1,32.4,82.1,32.1,81.9,32z"/>
<path d="M40.2,16.3c3.6-4.5,8.5-6.9,14.5-6.7c5,0.2,9.1,2,12.6,5.6c1.9,2,3.3,4.4,4.1,6.9c0.8,1.9,2.7,3.1,4.7,3.1
	c2,0,3.9-1.3,4.7-3.1c0.3-0.6,0.5-1.4,0.5-2c0-0.3,0-0.5,0-0.8c-0.2-0.8-0.3-1.4-0.8-2c-1.3-3.1-3.1-6-5.8-8.5
	C69.3,3.3,62.7,0.2,54.9,0c-6.1-0.2-11.5,1.7-16.2,4.9c-1.4,0.9-2.8,2-4.1,3.3C34,8.8,33.5,9.4,32.9,10c-0.2,0.2-0.5,0.8-0.5,0.8
	L22.3,37.9L9.3,3.3C8.3,0.8,5.7-0.5,3.1,0.5C0.6,1.4-0.6,4.2,0.3,6.6l17.1,45.1c0.9,2.5,3.8,3.8,6.1,2.8c0.9-0.3,1.7-1.1,2.4-1.9
	v0.2l0.2-0.3c0.2-0.5,0.5-0.8,0.5-1.3L40.2,16.3C40.1,16.3,40.2,16.3,40.2,16.3z"/>
</svg>
